<svg xmlns="http://www.w3.org/2000/svg" width="442" height="339" fill="none"><path fill="#F1F4F9" d="M433.545 257.502c1.507-16.436-7.221-31.668-21.341-38.846 14.054-3.69 25.164-14.94 28.53-29.421 3.779-16.24-2.926-32.989-16.778-42.094-15.285-10.024-31.666-14.603-47.25-18.527-8.514-2.156-16.974-4.182-25.526-6.247a39.905 39.905 0 0 0 17.303-21.224c4.343-12.463 2.085-26.284-5.8-36.871-15.451-20.398-41.441-26.301-52.59-28.805C232.503 18.13 153.377 6.27 74.782.319 53.07-1.224 34.066 15.105 32.345 36.926c-1.171 14.86 6.078 28.509 17.751 36.168l-11.924 2.432c-15.459 3.211-27.573 15.33-30.827 30.824-3.162 15.531 3.134 31.466 16.089 40.411 14.078 9.843 29.507 10.805 36.891 11.309 14.145.963 28.344 2.056 42.557 3.369l-18.65 3.169c-17.897 3.16-38.706 7.145-58.06 14.313A39.673 39.673 0 0 0 .376 218.712c1.134 17.539 13.632 32.196 30.759 36.013 20.453 4.56 39.94 5.282 57.079 5.991l1.245.09c11.275.41 22.822.933 34.59 1.441-19.516 8.067-29.329 30.054-22.18 50.101 3.918 10.864 12.08 18.991 21.92 23.095 8.838 3.686 18.919 4.135 28.604.662 72.356-26.275 153.969-40.638 242.613-42.624 20.074-.428 36.699-15.925 38.539-35.979z"/><path fill="#fff" d="M270.436 98.651a8.483 8.483 0 0 0-2.152-1.54c.461-.693.768-1.54.999-2.388v-.077c.154-.847.231-1.771.384-2.619.077-1.386-.23-2.618-.845-3.774-.231-.847-.615-1.54-1.23-2.156a7.337 7.337 0 0 0-2.767-2.542c-.922-.616-2.536-1.155-3.919-1.386-.461-.77-.999-1.463-1.614-2.157.23-.924.307-1.925.307-3.004-.077-4.236-1.153-8.626-3.689-12.092-2.69-3.697-5.841-6.931-10.452-7.393-2.767-.848-5.842-.463-8.608.847-2.69 1.31-5.073 3.312-7.148 5.391-.384.385-.692.77-.999 1.155a29.1 29.1 0 0 0-8.915-.693 7.042 7.042 0 0 0-1.768-.693c-.922-.154-1.845-.231-2.767-.385h-.077c-.922.154-1.844.231-2.767.385a7.461 7.461 0 0 0-3.535 1.849c-1.383 1.078-.845.539-1.921 1.925-.769 1.001-1.23 1.54-1.614 2.619-2.076 1.463-3.997 3.234-5.534 5.314-.769-.462-1.537-.847-2.459-1.078-4.919-1.156-10.53.077-13.911 4.005-1.614 1.848-2.69 3.928-2.69 6.47 0 .385.076.77.076 1.155-.614-.154-1.306-.154-1.998-.077-.23 0-.538.077-.768.077-3.766.385-6.994 2.08-8.531 5.7-.538 1.386-.769 3.003-.692 4.543-.384.231-.692.54-1.076.77-2.998 2.85-4.227 7.241-2.998 11.246.769 2.464 2.46 4.39 4.612 5.545.615 1.001 1.306 1.771 2.075 2.311.307.847.692 1.617 1.076 2.387-.154.308-.307.539-.461.847-.461 1.002-.999 2.08-1.23 3.235-.077.77-.23 1.541-.307 2.311.077.77.23 1.54.307 2.31l.922 2.08a6.89 6.89 0 0 0 2.229 2.465c.538.539 1.23.924 1.922 1.155.691.385 1.46.616 2.228.616.231.077.462.077.692.154.461.077.922.154 1.384.154.691 0 1.46-.077 2.152-.308a20.149 20.149 0 0 0 3.919 2.311c-.768 6.084-.768 12.323-.153 18.176.614 6.47 1.69 12.786 3.842 18.716-1.921 3.62-1.383 7.009-.691 11.245.538 3.774-1 7.24-.846 10.937a9.543 9.543 0 0 0 .846 3.389c-1 4.621-2.921 9.165-4.919 13.401-.538 1.079-1.537 4.236-2.306 4.776-.461.385-2.075.154-2.69.385-.999.308-1.768.77-2.613 1.386-3.228 2.465-5.61 6.547-4.15 10.706 1.383 3.851 5.38 6.007 9.223 6.623 7.301 1.156 15.525-2.387 18.676-9.319.922-2.079 1.229-4.39.461-6.624a7.121 7.121 0 0 0-1.384-2.31c-.307-.385-1.306-.924-1.921-1.387.231-.154.384-.847.461-1.155.461-1.001.615-2.156.999-3.158.846-2.618 1.922-5.237 2.844-7.856a4.052 4.052 0 0 0 .154-2.31 7.705 7.705 0 0 0 1.767-2.311 24.168 24.168 0 0 0 2.229-6.393c12.758 7.625 29.82 7.625 40.888-3.543 9.376-9.396 9.53-23.183 9.299-35.66-.153-7.086-.691-14.171-1.229-21.257-.462-5.931-.923-11.784-1.461-17.715.154-.077.308-.154.461-.308.385.077.769.154 1.23.154h.231c.922 0 1.767-.154 2.613-.616.692-.231 1.306-.616 1.844-1.078.231.077.462.231.692.308 1.845.77 3.843 1.001 5.841.462a9.07 9.07 0 0 0 6.226-6.239c.845-2.772 0-6.161-2.306-8.395zm-100.221 15.481c.154.154.154.154 0 0zM304.406 155.954c-.999-4.698-5.072-9.781-10.298-7.933-4.612 1.54-6.61 8.01-4.458 12.169.461.924 1.691 1.155 2.613.693.922 1.079 2.229 1.618 4.227 1.156 3.92-.925 2.69-4.313 1.691-7.24-.384-1.079-1.768-1.926-2.844-1.156-.768.54-1.383 1.156-1.767 1.849-.077-.154-.077-.231-.154-.308-.154-.231-.307-.462-.461-.616.461-1.464 1.46-2.696 2.69-3.004 2.382-.539 3.535 1.54 4.304 3.235 2.459 5.083-1.768 8.395-5.534 10.86-5.687 3.62-11.836 6.546-18.676 6.931-2.459.154-2.459 4.005 0 3.851 6.84-.385 13.143-2.926 18.984-6.392 4.842-3.081 11.067-7.394 9.683-14.095z"/><path fill="#1F84FF" d="M238.771 170.973c.615-.385 1.23-.847 1.844-1.309h-.076c.307.077.614.154.999.231.077.077.153.077.23.154.154.308.308.539.461.847v-.077 1.001c-.153.385-.384.693-.768.77-.615-.077-.692 0-.308.077-.153-.077-.153-.077.077.078.154.077.231.154.385.154.768.385 1.537.462 2.459.308.999-.231 1.614-1.387 1.307-2.388-.308-1.078-1.384-1.54-2.383-1.309h.231c.153.077.153.077 0 0-.077 0-.154-.077-.154-.077a5.356 5.356 0 0 0-.999-.385c-.769-.232-1.691-.154-2.383.308-.845.539-1.383 1.54-1.153 2.618.231.925 1.153 1.695 2.075 1.618.923 0 1.538-.616 1.845-1.387v-.077c.384-.924-.384-2.156-1.307-2.387-1.152-.385-1.921.231-2.382 1.232z"/><path fill="#C9E5FF" d="M174.212 116.751h-.308c-3.304-.693-6.225-2.927-7.762-6.008s-1.614-6.7-.231-9.781a1.2 1.2 0 0 1 .461-.616c.154-.463.308-.925.538-1.31.462-1.001 1.768-1.617 2.767-1.232.846.308 1.307 1.155 1.076 2.08-.153.693-.768 1.155-1.383 1.232-.922 2.233-.922 4.929-.077 7.163.922 2.464 2.997 4.621 5.457 5.622.768.308 1.153 1.155.922 1.849-.154.539-.769 1.001-1.46 1.001zM179.131 133.079c-3.228 0-6.456-2.003-7.609-5.084-1.46-3.774.461-8.472 4.15-10.166.769-.385 1.691 0 2.075.77.384.77 0 1.694-.768 2.08-2.229 1.001-3.382 4.005-2.537 6.238.846 2.234 3.766 3.62 6.072 2.927.845-.231 1.691.231 1.921 1.001.231.847-.23 1.695-.999 1.926-.768.231-1.537.308-2.305.308zM172.598 96.418c-.615 0-1.153-.308-1.384-.925-1.152-2.618-.615-5.93 1.384-7.933 1.076-1.078 2.843-1.617 4.227-1.309 1.076.231 1.844.924 2.152 1.925.307.77-.154 1.618-.922 1.926-.769.308-1.614-.077-1.922-.847-.23-.077-.922.077-1.306.462-1.153 1.155-1.461 3.08-.769 4.544.384.77 0 1.695-.769 2.003-.307.154-.461.154-.691.154zM182.82 92.952c-.769 0-1.46-.616-1.537-1.387-.538-5.083.614-9.935 3.228-13.632 2.997-4.236 7.993-6.624 12.681-6.239.845.077 1.46.847 1.383 1.695-.077.847-.845 1.463-1.691 1.386-3.689-.308-7.531 1.617-9.914 4.93-2.152 3.08-3.151 7.162-2.613 11.552.077.847-.538 1.618-1.384 1.695h-.153zM206.338 77.394c-.538 0-1.076-.308-1.384-.77-1.537-2.85-.23-5.93 1.23-8.627.692-1.232 1.46-2.541 2.613-3.62 1.537-1.309 3.459-1.848 5.15-1.309.845.231 1.229 1.155.999 1.926-.231.847-1.153 1.232-1.922 1-.615-.23-1.46.078-2.152.694-.768.693-1.383 1.772-1.998 2.773-1.076 1.925-2.075 4.082-1.23 5.622.385.77.154 1.695-.614 2.08-.154.23-.385.23-.692.23z"/><path fill="#C9E5FF" d="M211.18 68.228c-.461 0-.923-.23-1.23-.616-.461-.693-.307-1.617.384-2.156a36.44 36.44 0 0 1 4.304-2.696c.615-.308 1.845-1.001 3.228-.77.922.154 1.768.693 2.229 1.463.384.693.461 1.54.231 2.234-.308.77-1.153 1.232-1.999.924-.691-.231-1.076-.924-.999-1.54-.384 0-.922.308-1.23.462-1.383.77-2.689 1.54-3.996 2.464-.307.077-.615.231-.922.231zM228.703 70.924c-.154 0-.308 0-.461-.077-.846-.23-1.307-1.078-.999-1.925 1.306-4.236 4.38-8.01 8.377-10.013 3.612-1.848 7.532-2.233 11.298-2.387h.077c.845 0 1.46.616 1.537 1.463 0 .847-.615 1.54-1.46 1.617-3.382.154-6.994.54-10.069 2.08-3.228 1.617-5.764 4.698-6.84 8.164-.154.616-.768 1.078-1.46 1.078zM256.986 111.513h-.307c-1.384-.231-2.69-1.232-3.382-2.618-.692-1.387-.769-3.004-.154-4.313a1.539 1.539 0 0 1 2.075-.694 1.546 1.546 0 0 1 .692 2.08c-.231.462-.154 1.001.077 1.54.307.54.692.925 1.23 1.002a1.502 1.502 0 0 1 1.229 1.771c-.077.693-.691 1.232-1.46 1.232z"/><path fill="#C9E5FF" d="M261.982 115.056c-1.23 0-2.537-.385-3.689-1.155-1.384-.924-2.613-2.464-3.459-4.467-.845-2.002-.461-3.851 1.076-4.544.769-.385 1.691 0 2.075.77.308.693.077 1.463-.461 1.849 0 .154.077.385.154.693.615 1.463 1.46 2.541 2.382 3.158.999.693 2.229.77 2.998.385a1.539 1.539 0 0 1 2.075.693c.384.77.077 1.694-.692 2.079-.768.308-1.614.539-2.459.539zM207.26 81.784c-.615 0-1.23-.385-1.46-1.079-.846-2.464-.538-5.468.768-8.164 1.691-3.389 4.689-6.007 8.224-7.162 3.535-1.233 7.532-.925 10.914.77a1.545 1.545 0 0 1 .691 2.08 1.538 1.538 0 0 1-2.075.692c-2.613-1.309-5.764-1.54-8.531-.616-2.767.924-5.149 3.004-6.456 5.623-.999 2.002-1.23 4.082-.615 5.776.308.77-.153 1.695-.999 1.926-.154.077-.307.154-.461.154zM184.008 217.262c-.307 0-.615-.077-.845-.231-.692-.462-.923-1.464-.385-2.157 6.379-9.396 7.455-21.565 7.763-32.117.615-25.494-2.998-50.756-10.683-75.095-.231-.847.153-1.694.999-1.925.845-.231 1.691.231 1.921 1.001 7.763 24.647 11.452 50.294 10.837 76.096-.231 11.014-1.46 23.722-8.3 33.812-.308.308-.846.616-1.307.616z"/><path fill="#C9E5FF" d="M190.925 181.833c-.922 0-1.537-.77-1.537-1.618a189.778 189.778 0 0 0-7.071-58.381c-.23-.847.231-1.694 1.076-1.925.846-.231 1.691.231 1.922 1.078 5.533 19.332 7.916 39.28 7.224 59.306-.077.924-.768 1.54-1.614 1.54zM190.659 130.691c-.692 0-1.383-.539-1.537-1.232-.615-3.158-1.691-6.392-2.767-9.473-1.46-4.236-2.921-8.549-3.305-13.171-.077-.847.538-1.617 1.384-1.617.845-.077 1.614.539 1.614 1.386.307 4.159 1.69 8.164 3.151 12.4 1.076 3.158 2.229 6.47 2.843 9.859a1.502 1.502 0 0 1-1.229 1.771c.077 0 0 .077-.154.077z"/><path fill="#C9E5FF" d="M192.119 163.348h-.076c-.846-.077-1.538-.77-1.461-1.618.923-18.407-.538-36.969-4.457-54.992-.154-.847.384-1.617 1.153-1.848.845-.154 1.614.385 1.844 1.155a216.3 216.3 0 0 1 4.535 55.839c-.077.848-.769 1.464-1.538 1.464zM162.76 247.3h-.23a1.543 1.543 0 0 1-1.537-1.541c0-.847.691-1.54 1.537-1.54h.23c.846 0 1.537.693 1.537 1.54 0 .847-.691 1.541-1.537 1.541z"/><path fill="#C9E5FF" d="M164.682 251.151c-.538 0-1.153-.309-1.384-.848l-1.844-3.851c-.385-.77 0-1.694.768-2.079.769-.385 1.691 0 2.075.77l1.845 3.851c.384.77 0 1.694-.769 2.079-.23.078-.461.078-.691.078z"/><path fill="#C9E5FF" d="M153.153 310.764c-.461 0-.922-.231-1.23-.616a1.517 1.517 0 0 1-.153-1.695c5.918-10.474 7.071-23.26 8.147-34.582l2.536-27.496c.077-.847.845-1.463 1.691-1.386.845.077 1.46.847 1.383 1.694l-.077.694c.154-.077.308-.077.461-.077.846 0 1.537.693 1.537 1.54a245.927 245.927 0 0 1-5.533 49.678c-.999 4.544-2.921 10.706-8.378 12.169-.153.077-.23.077-.384.077zM106.348 213.411c-.615 0-1.153-.308-1.384-.848l-3.074-6.546c-.384-.77 0-1.695.769-2.08.768-.385 1.691 0 2.075.77l3.074 6.547c.384.77 0 1.695-.768 2.08-.231 0-.462.077-.692.077z"/><path fill="#C9E5FF" d="M111.19 239.752c-.692 0-1.384-.539-1.537-1.233-.615-3.388-.846-6.777-1-10.089a80.344 80.344 0 0 0-.461-6.085c-.691-6.238-2.305-10.86-5.149-14.017-.538-.617-.461-1.618.154-2.157.614-.539 1.614-.462 2.152.154 3.228 3.697 5.149 8.78 5.841 15.712.23 2.08.307 4.159.461 6.239.153 3.235.384 6.546.922 9.704a1.502 1.502 0 0 1-1.23 1.772h-.153zM95.51 203.013c-.307 0-.537-.077-.768-.231-2.92-1.772-4.842-5.16-4.919-8.626 0-.848.692-1.541 1.538-1.541.845 0 1.537.693 1.537 1.541 0 2.387 1.383 4.775 3.381 6.007.692.462.923 1.387.538 2.08-.23.539-.768.77-1.306.77zM98.2 194.618c-.383 0-.69-.154-.998-.385-3.459-3.004-4.92-8.164-3.612-12.477.23-.847 1.075-1.233 1.92-1.001.846.231 1.23 1.078 1 1.925-1 3.235.077 7.009 2.69 9.242.615.54.692 1.541.154 2.157a1.483 1.483 0 0 1-1.153.539zM101.045 178.675a1.6 1.6 0 0 1-1.23-.617c-4.15-5.622-8.07-11.707-7.455-18.407.077-.848.845-1.464 1.69-1.387.846.077 1.46.848 1.384 1.695-.538 5.699 2.92 10.937 6.84 16.328.538.693.385 1.617-.307 2.157a2.045 2.045 0 0 1-.922.231zM108.269 159.882c-.077 0-.077 0 0 0-.922 0-1.537-.77-1.537-1.617a20.192 20.192 0 0 1 1.537-7.086c.307-.771 1.23-1.156 1.998-.848.769.309 1.153 1.233.846 2.003a18.341 18.341 0 0 0-1.307 6.085c-.077.847-.768 1.463-1.537 1.463zM265.44 223.038c-.153 0-.23 0-.384-.077-.845-.231-1.307-1.001-1.153-1.848.384-1.772 1.384-3.389 2.69-4.698.615-.616 1.614-.539 2.152.077.615.616.538 1.617-.077 2.156-.845.847-1.537 2.003-1.767 3.158-.154.77-.769 1.232-1.461 1.232z"/><path fill="#C9E5FF" d="M254.296 234.668c-.538 0-1.153-.308-1.383-.847a1.545 1.545 0 0 1 .691-2.08c5.688-2.772 10.222-8.087 12.144-14.171.23-.847 1.076-1.233 1.921-1.002.845.232 1.23 1.079.999 1.926-2.152 6.855-7.224 12.862-13.68 16.02-.231.077-.461.154-.692.154zM282.502 210.176c-.384 0-.768-.154-1.076-.462-.614-.616-.538-1.617 0-2.157l4.612-4.467c1.691-1.617 3.382-3.312 4.227-5.314.307-.77 1.23-1.155 1.998-.847.769.308 1.153 1.232.846 2.002-1.076 2.619-3.152 4.621-4.919 6.393l-4.612 4.467c-.307.231-.691.385-1.076.385zM172.828 227.351h-.076a1.598 1.598 0 0 1-1.461-1.617c.154-2.619 1.999-4.929 5.303-6.701.461-.231.846-.462 1.307-.693 1.691-.847 3.305-1.694 4.227-3.004.538-.693 1.46-.847 2.152-.308.692.539.845 1.464.307 2.157-1.383 1.925-3.381 2.927-5.38 3.928-.384.231-.845.385-1.229.616-1.614.847-3.612 2.311-3.689 4.159 0 .847-.615 1.463-1.461 1.463z"/><path fill="#1F84FF" d="M115.109 211.1c-.153 0-.384 0-.538-.077-.768-.308-1.153-1.232-.845-2.002 1.383-3.466 2.92-7.471 2.767-11.322-.154-3.235-1.384-6.393-2.613-9.474-.846-2.002-1.538-3.62-2.844-4.621-.769-.539-1.768-.924-2.844-1.232-1.076-.308-2.382-.617-2.997-.154-.384.308-.615.924-.615 1.617.077.847.461 1.771.922 2.542 1.461 2.695 3.228 5.16 5.38 7.317.615.616.615 1.54 0 2.156-.615.616-1.537.616-2.152 0-2.382-2.387-4.381-5.083-5.918-8.087-.615-1.155-1.153-2.388-1.229-3.774-.154-1.771.614-3.466 1.844-4.39 1.998-1.386 4.612-.616 5.764-.231 1.307.385 2.613.847 3.766 1.694 2.075 1.541 3.075 4.005 3.843 5.931 1.307 3.158 2.69 6.778 2.844 10.552.154 4.467-1.537 8.78-2.998 12.554-.307.616-.922 1.001-1.537 1.001z"/><path fill="#1F84FF" d="M113.803 184.682h-.231c-.845-.077-1.46-.924-1.306-1.694 1.383-10.167 2.228-23.568.384-28.112-.308-.693-1.076-2.696-2.229-2.927-.538-.077-1.153.154-1.921.693-3.228 2.311-1.614 15.096-1 19.948.538 4.159.615 5.161-.922 5.469-1.46.308-1.768-.385-3.766-4.93-1.844-4.159-5.764-12.939-8.3-14.479-.692-.462-1.23-.616-1.537-.462-.308.077-.538.539-.846 1.309-.999 2.85 1.076 7.317 3.074 11.245 1.768 3.466 3.69 6.932 5.842 10.321.461.693.23 1.694-.462 2.156-.691.462-1.69.231-2.152-.462a130.916 130.916 0 0 1-5.918-10.552c-2.382-4.698-4.61-9.627-3.228-13.632.231-.616.846-2.542 2.69-3.158 1.845-.693 3.613.385 4.228.77 2.536 1.541 5.149 6.393 7.762 12.092-.768-7.856-.768-15.327 2.767-17.868 1.46-1.079 2.92-1.464 4.381-1.233 2.69.539 3.919 3.466 4.457 4.776 2.613 6.392.538 24.338-.153 29.729-.154.462-.846 1.001-1.614 1.001z"/><path fill="#1F84FF" d="M105.656 201.164c-1.537 0-3.151-.693-4.458-1.232-5.84-2.542-11.759-8.318-11.298-13.941.077-.77.23-2.695 1.768-4.467.154-.154 1.383-1.54 3.305-2.002 2.997-.77 6.609.847 9.069 4.082.538.693.384 1.617-.308 2.156-.691.539-1.614.385-2.152-.308-1.767-2.233-4.073-3.466-5.84-3.004-1.077.309-1.845 1.079-1.845 1.079-.846.924-.922 2.079-.922 2.618-.308 3.851 4.61 8.781 9.453 10.86 1.691.77 3.151 1.31 3.996.77.846-.616.923-2.387.846-3.234-.077-.848.538-1.618 1.383-1.695.846-.077 1.614.539 1.691 1.387.077 1.001.231 4.467-2.229 6.084-.691.693-1.537.847-2.459.847z"/><path fill="#1F84FF" d="M99.507 206.864c-1.767 0-3.766-.616-5.687-1.694-3.766-2.157-6.456-5.623-6.763-8.857-.308-3.081.692-4.699 1.614-5.546.845-.77 1.844-1.155 2.92-1.155 1.999 0 3.151 1.386 3.536 1.848.538.693.384 1.618-.308 2.157-.692.539-1.614.385-2.152-.308 0 0-.46-.616-1.076-.616-.384 0-.691.231-.845.385-.308.308-.769 1.001-.615 2.926.23 2.234 2.382 4.853 5.226 6.547 2.152 1.232 4.304 1.618 5.611 1.078.384-.154 1.383-.77 1.383-1.463.077-.616-.768-1.386-1.153-1.617-.691-.462-.922-1.387-.461-2.157.461-.693 1.384-.924 2.152-.462.461.308 2.767 1.925 2.536 4.39-.153 2.542-2.69 3.851-3.228 4.082a7.898 7.898 0 0 1-2.69.462z"/><path fill="#1F84FF" d="M131.172 262.858c-2.69 0-6.302-.539-9.761-2.696-3.535-2.31-6.609-5.699-9.299-10.398-3.305-5.776-5.534-12.323-6.379-18.946a64.657 64.657 0 0 1-.461-5.315c-.231-3.004-.461-5.853-1.076-8.626-1.153-4.929-3.689-8.626-6.994-10.244a1.545 1.545 0 0 1-.692-2.079 1.539 1.539 0 0 1 2.075-.693c5.611 2.772 7.84 8.934 8.608 12.323.692 3.004.922 6.084 1.153 9.088.154 1.695.23 3.466.461 5.16.769 6.239 2.844 12.324 5.995 17.792 2.459 4.313 5.226 7.394 8.3 9.397 4.612 2.926 9.607 2.233 11.452 2.002l.307-.077c2.998-.385 6.61-2.157 9.069-3.543 5.15-2.927 9.838-6.701 14.065-11.245.538-.616 1.537-.693 2.152-.077.615.539.692 1.541.077 2.157-4.381 4.775-9.377 8.78-14.756 11.861-3.92 2.233-7.379 3.543-10.146 3.928h-.23c-.922.077-2.229.231-3.92.231z"/><path fill="#1F84FF" d="M133.094 245.143h-.615c-6.687-.385-10.76-7.779-13.373-12.709-3.689-6.854-5.534-14.479-5.534-22.797 0-.848.692-1.541 1.537-1.541.846 0 1.537.693 1.537 1.541 0 7.779 1.768 15.018 5.15 21.334 2.382 4.39 5.918 10.86 10.837 11.168 2.459.154 5.149-.924 8.3-3.235 1.998-1.463 3.843-3.158 5.61-5.006 7.686-8.318 11.606-12.015 15.756-13.864 3.382-1.463 7.148-1.925 11.375-1.463.845.077 1.46.847 1.383 1.694-.077.848-.845 1.464-1.691 1.387-3.689-.385-6.994.077-9.837 1.232-3.613 1.54-7.455 5.314-14.68 13.093-1.844 2.003-3.843 3.774-5.995 5.392-3.535 2.464-6.686 3.774-9.76 3.774z"/><path fill="#1F84FF" d="M173.597 221.575a1.543 1.543 0 0 1-1.537-1.541c0-.847.692-1.54 1.537-1.54.615 0 1.23-.077 1.768-.231 6.609-1.694 9.453-12.708 10.683-17.407 3.458-13.555.538-49.369-7.609-93.502a1.502 1.502 0 0 1 1.23-1.771 1.5 1.5 0 0 1 1.767 1.232c8.378 45.211 11.221 80.64 7.532 94.812-1.383 5.237-4.534 17.406-12.912 19.563a8.643 8.643 0 0 1-2.459.385zM253.22 108.048c-.845 0-1.537-.693-1.537-1.463v-.386c0-.847.615-1.54 1.46-1.617.846 0 1.537.616 1.614 1.463v.386c0 .924-.692 1.617-1.537 1.617z"/><path fill="#1F84FF" d="M222.554 199.547c-11.067 0-21.212-4.082-27.437-11.091-.538-.616-.538-1.617.153-2.156.615-.539 1.614-.539 2.152.154 6.226 7.009 16.755 10.783 28.13 10.012 10.76-.77 19.906-5.468 24.594-12.631 5.918-9.165 4.688-20.949 3.458-32.425l-.153-1.156c-1.691-16.328-2.229-32.964-1.538-49.446 0-.848.769-1.54 1.614-1.464.846 0 1.538.77 1.461 1.618-.692 16.251-.231 32.733 1.46 48.984l.154 1.156c1.229 11.399 2.613 24.415-3.997 34.428-5.149 7.933-15.217 13.17-26.976 14.017-.923-.077-1.999 0-3.075 0z"/><path fill="#1F84FF" d="M199.728 221.421c-.154 0-.384 0-.538-.077-1.153-.463-1.998-1.079-2.69-2.003-1.998-2.773-.615-6.624.077-8.472 1.768-4.852 4.688-10.552 8.454-16.482.461-.694 1.384-.925 2.152-.462.769.462.922 1.386.461 2.156-3.689 5.777-6.533 11.245-8.147 15.866-.768 2.08-1.383 4.39-.461 5.623.308.385.692.693 1.307.924.768.308 1.153 1.232.922 2.002-.307.539-.922.925-1.537.925z"/><path fill="#1F84FF" d="M233.852 246.529c-5.303 0-10.913-2.542-16.14-7.317-2.459-2.233-3.612-4.082-4.688-5.776-1.153-1.772-2.152-3.466-4.688-5.854a35.43 35.43 0 0 0-9.3-6.315c-.768-.385-1.076-1.31-.768-2.08.384-.77 1.306-1.078 2.075-.77a38.154 38.154 0 0 1 10.068 6.855c2.767 2.618 4.074 4.621 5.15 6.392.999 1.618 1.998 3.235 4.15 5.161 5.226 4.852 10.913 7.085 15.832 6.392 1.307-.154 2.998-.693 6.84-3.003 5.765-3.543 11.145-8.088 15.91-13.633.538-.616 1.537-.693 2.152-.154.614.539.691 1.54.153 2.156-4.995 5.777-10.606 10.552-16.678 14.249-4.303 2.619-6.379 3.158-7.993 3.389-.538.231-1.306.308-2.075.308z"/><path fill="#1F84FF" d="M231.623 262.55c-5.149 0-9.914-2.311-13.68-4.467a87.403 87.403 0 0 1-12.835-9.012c-.615-.539-.692-1.54-.154-2.156.538-.616 1.537-.693 2.152-.154a87.295 87.295 0 0 0 12.374 8.703c3.997 2.311 9.223 4.775 14.449 3.851 3.766-.693 6.225-2.465 11.298-6.701 4.304-3.543 6.994-6.701 9.376-9.473 3.305-3.851 5.995-6.855 11.068-8.858 2.767-1.078 5.764-1.617 8.915-1.617.845 0 1.537.693 1.537 1.54 0 .848-.692 1.541-1.537 1.541-2.767 0-5.38.462-7.839 1.463-4.381 1.695-6.687 4.313-9.838 8.01-2.306 2.696-5.226 6.085-9.761 9.782-4.995 4.159-7.993 6.469-12.758 7.317-.922.154-1.844.231-2.767.231z"/><path fill="#1F84FF" d="M214.331 315c-.692 0-1.23-.462-1.461-1.078-6.302-20.719-8.608-43.054-6.532-64.62.076-.847.845-1.463 1.69-1.386.846.077 1.461.847 1.384 1.694-1.998 21.181.23 43.054 6.456 63.387.23.848-.231 1.695-.999 1.926-.231.077-.385.077-.538.077zM185.817 237.826c-.538 0-1.076 0-1.537-.077-3.382-.385-5.687-1.694-6.687-2.233-2.689-1.464-5.456-3.004-6.686-6.239-1.768-4.467.615-8.857 1.46-10.09.461-.693 1.384-.924 2.152-.462.692.462.923 1.387.461 2.157-.384.693-2.459 4.082-1.152 7.317.845 2.156 2.92 3.312 5.379 4.698.923.539 2.844 1.54 5.611 1.925 1.768.231 3.612-.077 5.226-.462 2.998-.616 6.302-1.54 8.378-4.544 2.305-3.389 1.46-7.471 1.152-8.703-.23-.847.308-1.695 1.076-1.849.846-.231 1.691.309 1.845 1.079.538 1.925 1.383 6.854-1.614 11.245-2.536 3.774-6.456 5.006-10.222 5.853-1.537.154-3.151.385-4.842.385zM261.444 116.289c-4.919 0-8.301-3.081-9.223-4.082-.615-.617-.538-1.618.077-2.157.615-.539 1.614-.539 2.152.077.538.539 3.382 3.312 7.532 3.081 3.151-.154 6.84-2.003 8.07-5.777 1.076-3.388-.385-7.547-3.305-9.242a6.162 6.162 0 0 0-2.46-.77c-.845-.077-1.46-.847-1.383-1.695.077-.847.845-1.463 1.691-1.386 1.306.154 2.536.54 3.689 1.155 4.15 2.388 6.148 8.01 4.688 12.863-1.614 5.16-6.609 7.702-10.76 7.933h-.768zM271.743 177.596c-5.227 0-10.299-.539-14.911-1.001-6.609-.693-13.219-1.849-19.752-3.543-.845-.231-1.306-1.078-1.076-1.849.231-.847 1.076-1.309 1.845-1.078 6.379 1.618 12.835 2.773 19.291 3.389 11.605 1.155 26.131 2.619 38.428-4.852 3.612-2.157 7.378-5.006 8.454-9.551.999-4.236-1.076-8.78-4.611-10.243-2.383-1.002-5.457-.462-7.378 1.309-1.922 1.771-2.767 4.775-1.999 7.24 0 0 1.23 3.62 4.151 3.851 1.383.154 3.766-.462 4.457-2.542.692-2.079-.845-4.005-2.075-4.698-.154-.077-1.23-.693-1.998-.308-.231.077-.384.308-.461.539v.308c.461.693.23 1.695-.461 2.157-.692.462-1.691.231-2.152-.462-.538-.771-.615-1.772-.385-2.773.308-1.078 1.076-2.003 1.999-2.465 2.075-1.078 4.304 0 4.918.308 2.614 1.387 4.612 4.93 3.536 8.395-1.153 3.389-4.688 4.93-7.609 4.622-5.149-.462-6.84-6.008-6.84-6.085-1.076-3.697.077-7.856 2.92-10.398 2.844-2.541 7.071-3.311 10.607-1.848 4.918 2.002 7.762 8.087 6.455 13.787-1.46 6.392-7.301 9.935-9.837 11.475-8.301 5.007-17.139 6.316-25.516 6.316zM229.228 161.199c-.461 0-.999-.231-1.23-.693-.461-.693-.307-1.695.385-2.157l8.3-5.699c2.613-1.772 3.689-3.312 3.459-4.621-.308-1.387-1.845-2.08-4.151-3.081-.461-.231-.922-.385-1.383-.616-4.996-2.311-8.531-7.471-8.838-12.94-.077-.847.614-1.54 1.46-1.617.845-.077 1.537.616 1.614 1.463.23 4.39 3.074 8.549 7.071 10.321.384.154.845.385 1.306.539 2.383 1.001 5.303 2.234 5.918 5.237.845 4.005-3.305 6.855-4.688 7.779l-8.301 5.7a1.216 1.216 0 0 1-.922.385zM180.821 93.106a1.577 1.577 0 0 1-1.46-1.001c-.154-.386-3.151-8.78 2.229-15.481 4.535-5.7 12.989-7.471 19.368-4.005 4.381 2.387 6.302 6.392 7.071 8.626.307.77-.154 1.694-.923 1.925-.768.308-1.691-.154-1.921-.924-.615-1.771-2.152-5.083-5.611-6.932-5.072-2.772-11.836-1.31-15.525 3.235-4.304 5.391-1.844 12.246-1.767 12.554a1.539 1.539 0 0 1-.923 2.003h-.538z"/><path fill="#1F84FF" d="M203.417 78.318c-.768 0-1.383-.54-1.537-1.31-.154-1.155-.922-6.931 3.228-11.706 4.842-5.623 11.99-4.776 12.758-4.622 7.378 1.079 10.606 7.317 10.991 8.087.384.77.077 1.695-.692 2.08a1.538 1.538 0 0 1-2.075-.693c-.077-.231-2.767-5.546-8.685-6.393-.615-.077-6.225-.77-9.991 3.62-3.228 3.697-2.69 8.318-2.537 9.165.154.848-.461 1.618-1.229 1.772h-.231zM172.214 97.88c-.308 0-.538-.076-.846-.23-.154-.077-3.766-2.465-3.612-6.855.077-2.157 1.23-5.16 4.227-6.47 3.074-1.309 6.84-.154 8.915 2.85.461.693.308 1.695-.384 2.157-.692.462-1.691.308-2.152-.385-1.23-1.772-3.458-2.542-5.226-1.772-1.537.693-2.306 2.388-2.383 3.774-.153 2.542 2.075 4.082 2.152 4.16.692.461.923 1.386.461 2.156-.153.385-.691.616-1.152.616z"/><path fill="#1F84FF" d="M174.904 118.599c-.077 0-.077-.077 0 0-1.922-.077-6.456-.693-9.992-4.467-.23-.231-5.918-6.547-2.92-13.633 2.075-4.852 6.763-6.47 8.146-6.931.846-.231 1.691.23 1.922 1.078.23.847-.231 1.694-1.076 1.925-.769.231-4.612 1.464-6.149 5.161-2.229 5.237 2.306 10.243 2.306 10.32 2.69 3.004 6.379 3.466 7.763 3.543.845 0 1.537.77 1.46 1.618 0 .693-.692 1.386-1.46 1.386z"/><path fill="#1F84FF" d="M179.745 136.391c-4.611 0-8.915-2.465-10.913-6.701-2.075-4.467-.999-10.012 2.767-13.632.614-.616 1.614-.616 2.152 0 .614.616.614 1.617 0 2.156-2.767 2.696-3.613 6.932-2.152 10.167 1.921 4.082 6.917 5.931 11.451 4.313.769-.308 1.691.154 1.998.924.308.771-.153 1.695-.922 2.003-1.46.462-2.92.77-4.381.77zM225.321 178.29c-3.382 0-6.763-.924-9.607-2.773-.692-.462-.922-1.386-.461-2.156.461-.694 1.383-.925 2.152-.463 3.92 2.542 8.992 3.004 13.296 1.31 4.304-1.772 7.686-5.623 8.685-10.167.154-.847.999-1.309 1.844-1.155.846.154 1.307 1.001 1.153 1.848-1.306 5.469-5.303 10.244-10.529 12.323-2.152.771-4.381 1.233-6.533 1.233z"/><path fill="#1F84FF" d="M266.593 175.363c-10.606 0-20.444-2.85-26.823-5.237-.768-.308-1.229-1.156-.922-2.003.307-.77 1.153-1.232 1.998-.924 10.76 4.005 31.281 9.319 48.189-.616 1.845-1.078 3.689-2.388 5.38-3.774.615-.539 1.614-.462 2.152.231.538.616.461 1.617-.23 2.157-1.845 1.54-3.766 2.926-5.765 4.082-7.685 4.467-16.063 6.084-23.979 6.084zM150.54 311.996c-.154 0-.384 0-.538-.077-.768-.308-1.23-1.155-.922-2.003a150.608 150.608 0 0 0 8.608-36.661c.999-9.396 1.076-19.024.307-28.497-.077-.848.538-1.618 1.384-1.695.845-.077 1.614.539 1.69 1.386.846 9.705.692 19.487-.307 29.114-1.307 12.708-4.304 25.34-8.762 37.355a1.542 1.542 0 0 1-1.46 1.078zM236.004 125.392a2.413 2.413 0 0 1-1.998-1.079c-.384-.616-.461-1.232-.538-1.694-.077-1.001 0-1.926.307-2.696.077-.308.231-.539.462-.77.153-.385.384-.693.691-1.001.538-.539 1.307-.924 2.152-.924.692 0 1.384.308 1.845.77.23.231.384.539.384.847.461.616.769 1.386.922 2.079.154 1.233-.307 2.542-1.152 3.312-.538.462-1.23.694-1.922.771-.154.154-.384.231-.615.308-.307.077-.384.077-.538.077zm.923-4.468v.232c-.077.539 0 .77.076.847h.077c.077-.077.154-.308.154-.539a4.19 4.19 0 0 1-.307-.54zM210.872 128.805c-.307 0-.691-.077-.922-.309-.845-.693-1.23-1.54-1.46-2.387-.308-1.078-.692-2.619.077-4.082.768-1.464 2.613-2.234 4.227-1.772 1.537.385 2.69 1.772 2.92 3.312.231 1.464-.384 3.004-1.46 4.005-.692.616-1.537.924-2.306.847-.307.232-.691.386-1.076.386zM264.441 97.418c-.692 0-1.306-.462-1.46-1.078-.231-.847.23-1.694 1.076-1.925 2.305-.693 3.996-2.388 4.381-4.467.614-3.158-1.845-6.085-4.458-6.778-2.075-.54-3.92.385-4.611.847-.615.385-1.307.308-1.845-.154-.538-.462-.615-1.232-.307-1.848.691-1.31 3.766-8.088.461-14.942-3.228-6.701-11.144-10.475-18.369-8.78-7.609 1.77-10.914 8.549-11.528 9.935-.308.77-1.23 1.155-1.999.77-.768-.308-1.152-1.232-.768-2.002.691-1.618 4.611-9.628 13.603-11.707 8.608-2.003 18.062 2.464 21.828 10.397 2.69 5.546 1.844 10.937.845 14.403 1.076-.154 2.229-.231 3.535.154 4.535 1.155 7.609 5.93 6.687 10.398-.615 3.235-3.151 5.853-6.61 6.855-.23-.078-.384-.078-.461-.078zM260.368 228.353c-.154 0-.384 0-.538-.077-.769-.308-1.23-1.156-.922-2.003 1.229-3.389 2.69-7.163 5.61-10.089 2.459-2.465 5.687-4.006 8.531-5.392 1.768-.847 3.92-1.925 6.379-1.771 1.384.077 2.613.539 3.766 1.001 1.691.693 3.536 1.617 4.074 3.543.384 1.463-.154 3.081-1.384 4.236-.922.924-2.152 1.386-3.305 1.848-2.997 1.079-6.071 1.772-9.299 2.003-.846.077-1.614-.539-1.614-1.386-.077-.848.538-1.618 1.383-1.618a31.29 31.29 0 0 0 8.454-1.848c.846-.308 1.691-.693 2.229-1.156.384-.385.615-.847.538-1.155-.154-.693-1.691-1.309-2.229-1.463-.999-.385-1.921-.693-2.843-.77-1.537-.077-3.075.539-4.842 1.463-2.767 1.309-5.688 2.696-7.686 4.775-2.459 2.465-3.689 5.777-4.919 9.011-.153.463-.768.848-1.383.848z"/><path fill="#1F84FF" d="M288.651 218.648c-.692 0-1.307-.462-1.46-1.078-.231-.847.23-1.694.999-1.925 4.842-1.464 8.454-2.696 10.529-3.543 4.15-1.618 8.07-3.389 9.069-5.623.307-.77.231-1.001.231-1.078-.077-.077-.308-.385-1.307-.462-2.767-.308-10.683 3.466-14.449 5.237-4.15 2.003-4.765 2.311-5.687 1.156-.999-1.31 0-2.157 2.229-4.005 3.381-2.773 12.373-10.013 11.297-14.48-.153-.693-.461-1.233-.768-1.31-1.23-.539-4.919 3.389-7.148 5.7l-.154.154c-4.15 4.39-8.684 9.011-13.372 13.787-.615.616-1.538.616-2.152 0-.615-.617-.615-1.541 0-2.157 4.688-4.775 9.145-9.396 13.296-13.71l.153-.154c3.92-4.159 7.379-7.702 10.53-6.392 1.229.539 2.229 1.771 2.613 3.466.999 4.236-2.613 8.857-6.533 12.631 4.304-1.926 8.147-3.235 10.529-2.927 1.691.231 2.921.847 3.613 1.926.999 1.617.23 3.311 0 3.851-1.461 3.466-6.149 5.468-10.76 7.317a151.851 151.851 0 0 1-10.76 3.619c-.231-.077-.384 0-.538 0z"/><path fill="#1F84FF" d="M282.81 229.354c-2.229 0-4.458-.308-6.456-.847-1.998-.539-4.688-1.31-5.38-3.697-.768-2.619 1.537-4.929 2.229-5.546.615-.539 1.614-.539 2.152.154.538.617.538 1.618-.154 2.157-.615.539-1.537 1.694-1.306 2.388.23.77 2.075 1.309 3.304 1.617 4.766 1.309 11.375.924 13.527-1.771.308-.386.922-1.156.846-2.08 0 0-.077-.847-.615-1.617-.999-1.31-3.459-1.849-6.072-1.31a1.5 1.5 0 0 1-1.768-1.232 1.505 1.505 0 0 1 1.23-1.772c3.843-.77 7.455.232 9.146 2.465 1.23 1.618 1.23 3.389 1.23 3.466.077 2.08-1.076 3.543-1.537 4.082-2.152 2.465-6.226 3.543-10.376 3.543z"/><path fill="#1F84FF" d="M281.58 236.44c-1.153 0-2.306-.154-3.228-.308-3.151-.617-5.533-2.08-6.533-4.005-.23-.463-1.383-2.927.231-4.853 1.46-1.771 4.073-1.54 4.611-1.54a1.446 1.446 0 0 1 1.307 1.694c-.077.848-.846 1.464-1.691 1.31-.615-.077-1.537 0-1.845.385-.307.385 0 1.155.154 1.463.538 1.001 2.229 1.926 4.381 2.311 3.151.616 6.533.077 8.07-1.31 1.23-1.078 1.306-1.771 1.306-2.002 0-.154-.076-.385-.307-.616-.461-.308-1.153-.231-1.153-.231-.845.154-1.614-.385-1.844-1.233-.154-.847.384-1.617 1.229-1.848.461-.077 2.229-.308 3.689.77.846.616 1.307 1.54 1.538 2.542.153 1.155-.077 2.926-2.306 4.852-2.152 2.002-4.996 2.619-7.609 2.619zM168.371 33.724c-.461 0-.846-.154-1.153-.54l-4.535-5.545c-.614-.693-1.69-2.08-1.383-3.774.231-1.31 1.23-2.31 2.69-2.542 1.537-.23 3.535.463 4.381 2.157.999 1.925.461 4.005-.231 5.854l1.537 1.848c.538.693.461 1.617-.23 2.157-.385.23-.769.385-1.076.385zm-4.151-9.32c0 .231.231.616.769 1.233l.692.847c.077-.616.077-1.156-.154-1.618-.077-.154-.307-.308-.615-.385-.384-.154-.538-.077-.692-.077zM335.764 67.92c-.461 0-.999-.23-1.307-.693-2.92-4.313-5.303-9.011-6.994-13.94-.23-.54-.077-1.233.385-1.618.461-.385 1.076-.539 1.614-.308.153.077.768-.308 1.076-.462.691-.385 1.614-.847 2.69-.847 2.305 0 3.842 2.31 3.842 4.39 0 1.771-.845 3.312-1.537 4.544-.384.77-1.383 1.001-2.075.616a57.355 57.355 0 0 0 3.536 5.93c.461.694.307 1.695-.385 2.157-.307.154-.538.231-.845.231zm-4.765-13.786c.538 1.31 1.076 2.618 1.691 3.928 0-.231.076-.385.153-.616.538-.925 1.153-2.003 1.153-3.004 0-.693-.461-1.31-.845-1.31-.308 0-.769.232-1.23.463-.231.23-.538.385-.922.539zM143.162 152.026c-.077 0-.077 0 0 0-.922-.077-1.614-.77-1.537-1.617v-.694c-1.691-4.39-4.304-8.472-7.455-11.938-.308-.385-.462-.847-.385-1.309.077-.462.385-.924.846-1.078l7.532-3.774a1.625 1.625 0 0 1 1.46 0c.461.231.769.693.769 1.232.461 5.391.537 10.937.384 16.405.153.385.077.77-.077 1.079v.231c-.077.847-.769 1.463-1.537 1.463zm-5.38-14.788c1.46 1.772 2.844 3.697 3.996 5.7 0-2.542-.153-5.007-.307-7.548l-3.689 1.848zM345.14 235.824a1.517 1.517 0 0 1-1.383-.924c-1.23-2.927-2.844-5.7-4.919-8.164a1.623 1.623 0 0 1 0-2.003c2.921-3.389 7.148-5.468 11.528-5.776.462 0 .923.154 1.23.462.308.308.461.77.384 1.232-.538 4.775-2.305 9.473-4.995 13.401-.077.154-.231.232-.308.386-.076.539-.384 1.078-.922 1.309-.23 0-.384.077-.615.077zm-3.074-10.013c1.23 1.618 2.306 3.389 3.305 5.161a27.35 27.35 0 0 0 3.382-8.704 13.787 13.787 0 0 0-6.687 3.543z"/><path fill="#1F84FF" d="M167.91 33.723h-.154c-.845-.077-1.46-.77-1.383-1.617l.999-12.477-3.382 3.543a1.555 1.555 0 0 1-2.152.077 1.563 1.563 0 0 1-.077-2.157l6.302-6.624c.462-.462 1.153-.616 1.768-.308.615.231.922.848.922 1.54l-1.306 16.637c-.077.77-.769 1.386-1.537 1.386zM335.533 69.769c-.461 0-.922-.231-1.23-.617l-9.837-13.247c-1.691-2.31-1.845-4.467-.461-5.776.768-.77 1.767-.925 2.382-1.002l8.378-1.386c.153-.77.768-1.31 1.537-1.31.845 0 1.537.77 1.46 1.618V48.742c.077.308 0 .54-.077.77l-.692 18.793c0 .616-.461 1.233-1.076 1.387-.076.077-.23.077-.384.077zm-.845-18.947l-7.763 1.31c-.23 0-.691.076-.768.23 0 .154.077.77.768 1.695l7.225 9.704.538-12.94zM96.049 85.095c-.538 0-1.076-.308-1.384-.847L90.9 76.854c-.384-.847-.922-1.771-.922-2.927-.077-3.08 2.92-5.16 7.686-5.39.461 0 .922.153 1.23.461.307.308.46.77.384 1.233l-1.614 12.015c0 .23-.077.385-.23.616.384.77.076 1.694-.692 2.08-.23.076-.462.153-.692.153zm-.077-13.247c-1.537.308-2.92.924-2.92 2.002 0 .463.307 1.002.537 1.54l1.46 2.85.923-6.392z"/></svg>
