<svg xmlns="http://www.w3.org/2000/svg" width="447" height="338" fill="none"><path fill="#F1F4F9" d="M439.593 252.331c1.266-16.457-7.684-31.559-21.908-38.529 13.999-3.896 24.943-15.308 28.097-29.836 3.54-16.293-3.409-32.943-17.392-41.844-15.431-9.8-31.877-14.138-47.517-17.834-8.544-2.031-17.033-3.933-25.614-5.872A39.91 39.91 0 0 0 372.25 96.94c4.159-12.525 1.7-26.311-6.339-36.782-15.748-20.17-41.822-25.692-53.006-28.032-77.836-16.2-157.126-26.901-235.8-31.701C55.373-.8 36.609 15.805 35.208 37.649c-.953 14.875 6.495 28.416 18.279 35.904l-11.888 2.606c-15.41 3.437-27.346 15.733-30.372 31.272-2.935 15.576 3.594 31.417 16.678 40.172 14.22 9.636 29.662 10.372 37.053 10.768 14.158.756 28.37 1.64 42.601 2.745l-18.601 3.441c-17.85 3.422-38.597 7.712-57.845 15.161a39.674 39.674 0 0 0-25.211 40.165c1.391 17.52 14.102 31.993 31.283 35.559 20.517 4.26 40.013 4.697 57.16 5.155l1.247.072c11.279.245 22.833.599 34.607.935-19.396 8.351-28.886 30.48-21.445 50.419 4.077 10.806 12.357 18.813 22.256 22.773 8.891 3.556 18.978 3.857 28.611.243 71.963-27.33 153.358-42.886 241.963-46.169 20.066-.722 36.462-16.46 38.009-36.539z"/><path fill="#1F84FF" d="M311.909 46.162c-.881-.97-1.41-1.235-2.733-1.676-1.41-.53-2.821.794-2.821 2.117v26.29c0 1.677 1.851 2.736 3.35 1.942l18.779-10.852c1.499-.882 1.322-2.911 0-3.793-6.348-4.235-11.902-9.175-16.751-14.998-1.852-2.206-4.937.97-3.086 3.088 5.114 6.087 11.021 11.292 17.721 15.703V60.19L307.589 71.04a65.407 65.407 0 0 1 3.35 1.941v-26.29c-.969.706-1.851 1.411-2.821 2.117.265.177.529.353.706.618 1.851 1.94 5.025-1.147 3.085-3.265zM334.303 269.982c-.706 9.881-.441 19.674.617 29.466.352 2.823 4.76 2.823 4.408 0-1.058-9.792-1.323-19.585-.617-29.466.176-2.823-4.232-2.823-4.408 0z"/><path fill="#1F84FF" d="M335.978 266.277c2.733 3.529 5.554 6.881 8.64 10.057 1.41 1.5 2.909 3 4.408 4.411.881.794 5.113 3.706 5.201 4.676.265 1.941-7.141 6.44-8.375 7.675-3.438 3.088-6.524 6.441-9.522 10.058-1.763 2.205 1.323 5.293 3.086 3.088 3.615-4.323 7.494-8.382 11.814-11.999 2.38-2.029 8.375-4.675 8.023-8.557-.088-1.412-.97-2.294-1.94-3.353-2.204-2.205-4.672-4.146-6.877-6.352-4.055-4.058-7.846-8.293-11.372-12.88-1.676-2.206-4.761.97-3.086 3.176zM84.891 274.746c-.088 9.175-.088 18.262-.176 27.437 0 1.941 2.38 2.823 3.79 1.588 6.525-5.999 13.666-11.028 21.424-15.262 1.499-.794 1.411-3 0-3.794-3.791-2.206-7.67-4.323-11.46-6.528-1.323-.794-9.963-5.206-9.963-5.558.353-2.824-4.056-2.824-4.408 0-.441 3.705 5.378 5.469 7.846 6.881 5.29 2.999 10.58 5.999 15.781 8.999v-3.794c-8.11 4.323-15.516 9.704-22.305 15.968 1.234.53 2.469 1.059 3.791 1.588 0-9.175.088-18.262.176-27.437 0-2.999-4.408-2.999-4.496-.088zM4.84 84.627c-.089 10.146.352 20.292 1.586 30.349.265 2.294 2.733 2.911 4.144 1.147a87.633 87.633 0 0 1 15.34-15.439c.882-.706.794-2.382 0-3.088-6.965-5.823-14.458-10.763-22.57-14.645-2.556-1.235-4.76 2.559-2.203 3.794 7.758 3.705 14.987 8.293 21.6 13.851v-3.088c-6.084 4.764-11.373 10.234-16.046 16.409 1.41.353 2.733.706 4.144 1.147a249.052 249.052 0 0 1-1.587-30.348c0-2.912-4.408-2.912-4.408-.089zM133.733 27.106a212.822 212.822 0 0 1 1.322 23.732c0 1.853 2.469 3 3.791 1.588 4.585-5.029 9.434-9.793 14.547-14.38 1.235-1.147.529-3.264-.97-3.705-5.995-1.588-11.108-4.412-15.692-8.646-1.94-1.765-4.497.441-3.439 2.646 2.557 5.559 3.615 11.293 3.439 17.468-.089 2.912 4.055 2.735 4.408 0 .352-3.44.881-6.88 3.614-9.263 2.116-1.94-1.058-5.029-3.085-3.088-3.615 3.265-4.32 7.764-4.849 12.44h4.408c.176-6.882-1.146-13.41-4.056-19.674l-3.438 2.647c5.025 4.676 10.932 8.028 17.633 9.793-.353-1.236-.618-2.47-.97-3.706-5.114 4.588-9.963 9.352-14.547 14.38 1.234.53 2.469 1.06 3.791 1.588 0-7.94-.441-15.791-1.322-23.731-.441-2.912-4.849-2.912-4.585-.089z"/><path fill="#1F84FF" d="M337.829 274.746c.176-.706.264-1.5.441-2.205h-4.232c1.322 8.028 2.292 16.056 2.997 24.084h4.409c-.794-8.116-1.411-16.233-.794-24.437h-4.408c-.176 8.028-.265 16.144-.441 24.173h4.408c-.264-6.617.088-13.146.97-19.674-1.322.176-2.645.353-4.055.529 3.262 5.647.793 12.881 2.733 18.968.705 2.382 4.231 1.941 4.32-.617l.529-14.028a72.68 72.68 0 0 0-4.144 1.147c1.234 2.823 1.587 5.646 1.146 8.734 1.411.177 2.909.353 4.32.618v-6.176c-.97.706-1.851 1.412-2.821 2.117.088.089.264.177.352.353 1.411 2.471 5.202.265 3.791-2.205-.881-1.5-1.322-1.853-2.997-2.382-1.411-.353-2.821.706-2.821 2.117v6.176c0 2.382 3.967 3.087 4.32.617.617-4.323.176-8.116-1.587-12.086-.97-2.118-4.056-.882-4.144 1.147l-.529 14.027c1.411-.177 2.91-.353 4.32-.618-2.116-6.616.441-13.674-3.174-20.026-.881-1.5-3.791-1.412-4.055.529a117.27 117.27 0 0 0-1.058 20.821c.088 2.823 4.32 2.823 4.408 0 .176-8.028.264-16.145.441-24.173.088-2.911-4.232-2.823-4.408 0-.617 8.205 0 16.321.793 24.437.265 2.823 4.673 2.823 4.408 0a303.114 303.114 0 0 0-3.174-25.231c-.352-2.117-3.879-2.029-4.231 0-.177.706-.265 1.5-.441 2.205-.441 2.647 3.791 3.794 4.408 1.059zM317.464 52.25c.088 0 .088-.088.176-.088.617-.265 1.146-1.235 1.058-1.941-.088-1.059-.441-1.765-1.322-2.294-.618-.353-1.676-.441-2.205 0-1.675 1.235-1.675 2.911-2.115 4.94-.529 2.824-1.147 5.735-1.676 8.558 1.411.177 2.91.353 4.32.618.089-2.559.177-5.117.177-7.676 0-2.47-3.703-3-4.32-.617-.882 3.617-1.323 7.234-1.411 10.851 0 2.382 3.968 3.088 4.32.618.529-3.97.882-7.94.97-11.91 0-2.47-3.703-3-4.32-.618a45.09 45.09 0 0 0-1.587 11.91c0 1.323 1.411 2.647 2.821 2.117 1.058-.44 1.852-.882 2.645-1.764.441-.53.705-1.147 1.146-1.676.617-.706.177-.618.529-.441.177.088.617 1.235.794 1.411.264.353.793.618 1.146.706.97.353 2.028.176 2.909-.441.882-.618 1.146-1.412.97-2.47 0-.177 0-.265-.088-.441-.353-2.824-4.673-1.588-4.232 1.146 0 .177 0 .265.088.442.353-.794.705-1.677.97-2.47 1.234-.883 1.587.529.882-.883-.177-.53-.529-.794-.97-1.147a3.535 3.535 0 0 0-2.821-.706 5.34 5.34 0 0 0-2.557 1.235c-.882.706-1.675 2.824-2.645 3.176.97.706 1.851 1.412 2.821 2.118 0-3.706.441-7.234 1.411-10.763-1.411-.177-2.91-.353-4.32-.618 0 3.617-.265 7.234-.794 10.763 1.411.177 2.91.353 4.32.618 0-3.353.353-6.529 1.235-9.705-1.411-.176-2.91-.352-4.32-.617 0 2.558-.089 5.117-.177 7.675-.088 2.47 3.879 3.088 4.32.618.794-3.882 1.146-8.117 2.469-11.91-.353.44-.705.882-.97 1.323.088-.088.265-.176.353-.265h-2.204c.088.089.176.089.264.177a38.61 38.61 0 0 1-1.058-1.941v.265c.353-.618.705-1.236 1.058-1.941-.088 0-.088.088-.176.088-2.733 1.323-.529 5.117 2.116 3.97zM93.443 278.098c.088 0 .088-.088.176-.088.882-.441 1.234-1.588.97-2.47-.176-.794-.617-1.412-1.323-1.676-.881-.441-1.94-.441-2.644.353-1.675 1.676-1.147 4.675-1.235 6.881-.088 3.617-.264 7.322-.352 10.939-.088 2.471 3.879 3.088 4.32.618.529-3 .97-5.999 1.498-8.999h-4.231a28.563 28.563 0 0 1 1.322 8.646h4.408c0-.97-.353-1.764-1.058-2.382.177.882 1.234 1.676 2.116 1.588 1.499-.088 2.557-.617 3.262-2.029 1.234-2.558-2.557-4.764-3.79-2.206.175-.088.352-.088.528-.176l2.116 1.588c-.353-2.117-2.645-3.264-4.673-2.735-2.82.794-3.262 3.794-2.909 6.264.353 2.735 4.32 2.911 4.408 0 .088-3.353-.44-6.617-1.41-9.793-.618-1.852-3.88-2.294-4.232 0-.53 3-.97 5.999-1.499 8.999 1.41.176 2.91.353 4.32.617.088-2.558.176-5.116.264-7.763.089-1.323.089-2.559.177-3.882 0-.529-.177-3.088-.088-3.088-.882.089-1.764.265-2.645.353-.265-.353-.441-.617-.706-.97.353-.794.706-1.676.97-2.47-.088 0-.088.088-.176.088-2.557 1.323-.353 5.117 2.116 3.793zM12.774 85.774c.441 4.411.882 8.91 1.41 13.322a72.504 72.504 0 0 0 4.144-1.147c-1.763-2.47-3.879-4.058-6.788-4.94-1.41-.442-2.733.705-2.821 2.117-.177 3.705 0 7.322.529 10.939 1.41-.353 2.82-.794 4.232-1.147-1.411-3.705-1.587-7.146-.441-10.94H8.807c.882 3.177 1.763 6.264 2.557 9.44.793 2.735 5.025 1.588 4.231-1.146-.881-3.176-1.763-6.264-2.556-9.44-.617-2.117-3.615-2.117-4.232 0-1.323 4.5-1.146 8.91.44 13.321 1.059 2.735 4.673 1.588 4.232-1.147-.44-3.264-.528-6.528-.352-9.792-.97.706-1.852 1.411-2.821 2.117 1.851.53 3.085 1.323 4.232 2.912 1.146 1.587 4.32 1.323 4.143-1.147-.44-4.412-.882-8.91-1.41-13.322-.353-2.823-4.761-2.823-4.497 0zM395.135 200.816c.352 11.116.969 21.967-2.028 32.819-.529 1.94 2.292 3.97 3.703 2.117 5.466-6.97 11.814-12.969 19.131-17.909 1.499-.971 1.322-2.823 0-3.794a776.477 776.477 0 0 1-16.839-12.968c-1.322-1.059-3.967-.53-3.791 1.588.617 6.175 1.234 12.351 1.94 18.614.264 2.382 3.614 3.088 4.32.618a44.704 44.704 0 0 0 1.851-11.822h-4.408c.264 2.912.97 5.382 2.204 8.028.705 1.5 3.086 1.412 3.791 0a120.641 120.641 0 0 0 2.292-4.852c-1.322-.176-2.645-.353-4.055-.529 1.146 3.97 4.408 7.234 8.287 4.058 2.204-1.764-.97-4.94-3.086-3.088-.352-.705-.617-1.411-.97-2.117-.529-1.676-3.173-2.294-4.055-.529a120.641 120.641 0 0 0-2.292 4.852h3.791c-.882-1.941-1.323-3.617-1.587-5.823-.265-2.735-4.32-2.911-4.408 0-.088 3.706-.617 7.146-1.675 10.675 1.41.177 2.909.353 4.32.618-.618-6.176-1.235-12.351-1.94-18.615a170.21 170.21 0 0 1-3.791 1.588c5.819 4.587 11.726 9.175 17.721 13.674v-3.793a87.285 87.285 0 0 0-20.101 18.526l3.702 2.118c3.086-11.205 2.557-22.409 2.116-33.966.177-2.911-4.231-2.911-4.143-.088z"/><path fill="#C9E5FF" d="M134.615 150.706c-2.381 2.47-2.028 5.293-1.94 8.646 0 4.058.088 8.116.088 12.086.089 8.117.353 16.145.529 24.261.441 16.145.617 32.289 1.146 48.434.177 6.176 9.786 6.176 9.61 0-.441-16.145-1.322-32.289-1.939-48.434-.265-8.116-.529-16.144-.97-24.261-.265-4.058-.441-8.116-.706-12.086-.176-3.265.089-6.264-2.38-8.646-.97-.882-2.468-.971-3.438 0zM256.103 116.564c-1.94 2.999-2.028 6.44-2.293 9.881-.264 3.352-1.234 7.146.882 10.057 1.322 1.853 3.967 2.559 5.73.706 2.734-2.823 2.381-6.529 2.557-10.146.177-3.705.529-7.057-1.146-10.498-1.058-2.382-4.408-1.853-5.73 0z"/><path fill="#C9E5FF" d="M139.375 161.204c2.204 0 2.204-3.441 0-3.441-2.292-.088-2.292 3.441 0 3.441zM51.477 113.034c1.147 12.263 1.764 24.614 1.676 36.966-.089 12.439-1.587 24.614-2.47 36.965-.352 5.117 8.2 6.352 8.993 1.235 3.968-24.526 2.998-50.728-.176-75.166-.705-4.94-8.463-5.116-8.023 0zM315.26 191.111c-.882 2.294-1.146 4.588-1.675 6.97-.529 2.382-1.323 4.587-1.94 6.969l2.292-2.293c-.088 0-.176 0-.352.088.705.088 1.322.176 2.027.265-.176-.089-.441-.177-.617-.265-1.763-.794-4.144.529-3.438 2.647 0-.177.088-.265.088-.442-1.234 4.059 4.937 5.647 6.259 1.765 1.676-4.764 2.998-10.587 2.205-15.615-.441-2.824-4.056-2.118-4.849-.089zM210.17 247.309c-3.527 4.94-1.763 14.556-1.234 20.203.352 4.146 6.7 4.322 6.612 0-.177-5.823-.088-11.646.352-17.468-1.498.882-2.997 1.676-4.496 2.558.353.176.617.353.97.529 1.851 1.059 4.32-.705 3.703-2.823l-.265-1.058c-.97-3.441-5.466-2.382-5.818.794-.706 5.822-1.058 11.645-.97 17.468h6.612c-.353-3.706-.617-7.411-.705-11.116-.089-3.088.176-6.352-1.411-9.087-.97-1.235-2.645-1.059-3.35 0zM105.345 188.112c-.089.088-.177.088-.265.176.353-.088.353-.176.176-.088-1.851.53-2.468 2.912-1.146 4.235 1.323 1.323 3.703.706 4.232-1.147.088-.265.088-.176-.088.176.088-.088.088-.176.176-.264.441-.882.353-2.029-.352-2.735-.794-.706-1.852-.882-2.733-.353z"/><path fill="#C9E5FF" d="M100.319 190.671c-.617 3.881-.881 7.851-1.058 11.733-.176 3.882 6.172 3.882 5.995 0-.176-3.882-.352-7.852-1.057-11.733-.177-1.941-3.527-1.941-3.88 0z"/><path fill="#C9E5FF" d="M99.173 205.051c.177.617.441 1.146.617 1.764.265.794.706 1.412 1.411 1.853.617.353 1.587.529 2.38.264 1.499-.529 2.645-2.117 2.116-3.793-.176-.618-.352-1.147-.529-1.765-.264-.794-.705-1.411-1.41-1.852-.706-.353-1.675-.53-2.381-.353-1.498.529-2.733 2.205-2.204 3.882z"/><path fill="#1F84FF" d="M134.967 246.515c-.705 0-1.322-.53-1.322-1.235-1.94-37.759-2.909-68.725-2.998-94.663 0-.705.618-1.323 1.323-1.323s1.322.618 1.322 1.323c.088 25.938 1.058 56.815 2.998 94.486 0 .794-.529 1.412-1.323 1.412z"/><path fill="#1F84FF" d="M131.97 151.941c-.706 0-1.235-.53-1.323-1.147-.088-.706.441-1.412 1.146-1.5 20.895-2.559 42.23-4.323 63.301-5.293 30.504-1.412 61.449-1.059 91.954.97.705.088 1.322.706 1.234 1.412-.088.705-.706 1.323-1.411 1.235-30.416-2.029-61.273-2.294-91.689-.971a884.36 884.36 0 0 0-63.036 5.205c-.088.089-.176.089-.176.089z"/><path fill="#1F84FF" d="M289.869 243.251c-.705 0-1.323-.618-1.323-1.324l-.793-96.25c0-.706.617-1.323 1.322-1.323.706 0 1.323.617 1.323 1.323l.793 96.25c0 .706-.617 1.324-1.322 1.324zM134.967 246.515c-.705 0-1.322-.618-1.322-1.324 0-.705.617-1.323 1.322-1.323h154.549c.706 0 1.323.618 1.323 1.323 0 .706-.617 1.324-1.323 1.324H134.967zM131.97 151.941c-.265 0-.529-.088-.794-.265-.617-.441-.705-1.323-.264-1.853 2.645-3.528 3.879-5.116 7.582-8.645a1.31 1.31 0 0 1 1.939.088 1.314 1.314 0 0 1-.088 1.941c-3.526 3.44-4.672 4.852-7.229 8.293-.353.264-.794.441-1.146.441z"/><path fill="#1F84FF" d="M288.899 147.706c-.176 0-.264 0-.441-.088a1.397 1.397 0 0 1-.881-1.676c1.322-3.882 4.32-7.235 8.111-8.999.705-.265 1.498 0 1.763.706.353.706 0 1.5-.705 1.764-3.086 1.412-5.555 4.147-6.701 7.411-.088.529-.617.882-1.146.882zM289.516 246.515h-.176c-.705-.088-1.234-.794-1.146-1.5.617-4.587 2.997-8.822 6.7-11.645.617-.441 1.411-.353 1.851.265.441.617.353 1.411-.264 1.852-3.086 2.382-5.113 5.999-5.642 9.881-.089.706-.706 1.147-1.323 1.147z"/><path fill="#1F84FF" d="M289.869 243.25c-.177 0-.353 0-.529-.088-.706-.264-1.058-1.058-.706-1.764 1.323-3.176 3.439-5.999 6.084-8.205.617-.441 1.41-.353 1.851.177.441.617.353 1.411-.176 1.852a17.867 17.867 0 0 0-5.29 7.146c-.264.618-.705.882-1.234.882zM139.375 143.471c-.705 0-1.322-.617-1.322-1.323s.529-1.323 1.322-1.411l156.93-3.97c.705 0 1.322.529 1.41 1.323 0 .706-.529 1.323-1.322 1.411l-157.018 3.97z"/><path fill="#1F84FF" d="M295.599 235.751c-.793 0-1.322-.617-1.322-1.323l.617-96.25c0-.706.617-1.324 1.322-1.324.706 0 1.323.618 1.323 1.324v.353l-.617 95.897c.088.706-.529 1.323-1.323 1.323zM216.165 282.862c-6.877 0-13.753-.794-20.277-2.47-3.262-.794-6.965-1.941-9.875-4.146-3.35-2.559-4.937-6.176-4.055-9.44.705-2.823 2.997-4.941 7.846-7.058 4.849-2.206 9.875-3.441 16.928-4.058.705-.088 1.41.441 1.498 1.235.088.706-.441 1.411-1.234 1.5-6.7.617-11.549 1.764-16.046 3.881-3.879 1.765-5.906 3.441-6.347 5.294-.529 2.205.705 4.764 3.085 6.616 2.557 1.941 5.907 3 8.905 3.706 13.401 3.352 28.212 3.176 41.524-.53 2.733-.794 5.731-1.764 8.111-3.528 2.293-1.677 3.615-3.97 3.439-6.088-.177-2.735-2.91-4.587-4.232-5.558-1.323-.882-4.673-3.352-16.927-4.058-.706-.088-1.323-.706-1.235-1.412.089-.705.706-1.323 1.411-1.235 11.549.706 15.869 2.823 18.338 4.588 1.499 1.059 5.113 3.617 5.378 7.499.264 2.999-1.499 6.175-4.497 8.381-2.733 2.029-6.083 3.176-8.992 3.97-7.406 1.853-15.076 2.911-22.746 2.911z"/><path fill="#1F84FF" d="M209.464 268.041c-.617 0-1.234-.441-1.322-1.147a72.394 72.394 0 0 1-.265-20.467c.089-.441.177-1.235.706-1.853.441-.618 1.322-.706 1.851-.265.617.442.705 1.324.265 1.853-.088.088-.088.441-.088.529-.882 6.529-.794 13.145.176 19.674.088.706-.353 1.411-1.146 1.5 0 .176-.088.176-.177.176zM226.48 268.306s-.088 0 0 0c-.793 0-1.411-.618-1.322-1.412.264-7.146.705-14.38 1.058-21.526.088-.706.705-1.323 1.41-1.235.705.088 1.323.706 1.234 1.411a843.943 843.943 0 0 0-1.058 21.527c0 .617-.617 1.235-1.322 1.235z"/><path fill="#1F84FF" d="M215.371 269.805c-1.851 0-3.791-.088-5.642-.352-.705-.089-1.234-.794-1.146-1.5.088-.706.793-1.235 1.499-1.147 5.201.617 10.315.353 15.428-.882a1.313 1.313 0 0 1 1.587.97 1.315 1.315 0 0 1-.97 1.588c-3.614.971-7.141 1.323-10.756 1.323zM206.467 205.845c-.705 0-1.322-.618-1.322-1.324a148.163 148.163 0 0 0-2.645-24.967c-.177-.705.352-1.411 1.058-1.588.705-.176 1.41.353 1.587 1.059a154.257 154.257 0 0 1 2.644 25.408c.089.794-.528 1.412-1.322 1.412.088 0 .088 0 0 0zM215.019 204.168c-.706 0-1.323-.617-1.323-1.323 0-4.058-.352-8.205-.97-12.263-.088-.706.441-1.411 1.147-1.5.705-.088 1.41.441 1.498 1.147.617 4.147.97 8.381.97 12.616.088.706-.529 1.323-1.322 1.323zM226.656 203.904h-.352c-.353-.088-.617-.353-.794-.618a34.832 34.832 0 0 1-4.408-14.027c-.088-.706.441-1.412 1.234-1.5.706-.088 1.411.441 1.499 1.235a32.206 32.206 0 0 0 3.086 11.028c.088-.353.176-.794.264-1.147l.088-.441c.529-2.823 1.852-5.558 3.703-7.764.441-.529 1.323-.617 1.852-.176.529.441.617 1.323.176 1.853a13.701 13.701 0 0 0-3.086 6.44l-.088.441c-.264 1.588-.617 3.441-2.292 4.499-.353.177-.617.177-.882.177zM243.584 204.08c-2.028 0-4.056-1.059-5.29-2.735-1.146-1.676-1.587-3.882-1.323-6.087 0-.265 0-.618.177-.794 0-.088.088-.177.088-.353.529-1.941 1.587-3.882 3.438-5.999.353-.441 1.411-1.676 2.91-1.412.705.089 1.675.53 2.38 2.029 1.146 2.559.793 5.647-.97 7.499-1.058 1.059-2.645 1.677-4.232 1.588-.352 0-.705-.088-1.058-.176.089.882.353 1.676.882 2.294.97 1.323 2.645 1.941 3.967 1.499a1.371 1.371 0 0 1 1.764.794c.264.706-.089 1.5-.794 1.765-.705 0-1.322.088-1.939.088zm-3.703-9.44c.352.265.793.265 1.058.353.793.088 1.587-.264 2.116-.706.969-1.058 1.146-2.911.44-4.499-.088-.176-.176-.353-.264-.441-.088.088-.265.176-.529.441-1.499 1.765-2.38 3.353-2.821 4.852zM214.666 185.641c-.353 0-.793-.176-1.058-.529-.529-.353-.705-.97-.529-1.588a1.63 1.63 0 0 1 1.499-.97c.705.088 1.322.617 1.41 1.323.089.618-.176 1.323-.793 1.588-.176.088-.353.176-.529.176zM184.515 206.109c-.618 0-1.323-.088-1.94-.353-3.438-1.146-5.731-5.028-5.025-8.645.793-3.529 4.496-6.264 8.111-5.823a1.426 1.426 0 0 1 1.234 1.412c.088 0 .264.088.353.088 2.204.794 3.702 3.088 3.791 5.646 0 2.117-.882 4.235-2.645 5.911-.617.617-1.235 1.059-1.94 1.323-.617.265-1.322.441-1.939.441zm-4.409-7.234c.177 1.853 1.499 3.794 3.263 4.323.793.265 1.498.265 2.027 0 .353-.176.706-.353 1.058-.794 1.146-1.147 1.852-2.647 1.852-3.97 0-1.412-.882-2.735-2.028-3.176-.882-.353-1.94-.176-2.645.441a2.968 2.968 0 0 0-.97 2.47c.088.706-.352 1.412-1.146 1.5a1.132 1.132 0 0 1-1.411-.794z"/><path fill="#1F84FF" d="M184.514 201.257c-.264 0-.528-.089-.705-.177a1.312 1.312 0 0 1-.617-1.323c-.088 0-.088.088-.176.088-.441.177-.97.088-1.323-.176-.352-.265-.529-.794-.529-1.235.177-.883.441-1.765.794-2.647-.265-.529-.088-1.147.352-1.5l1.323-1.235a1.46 1.46 0 0 1 1.851 0c.177.176.353.353.353.618h.264c.706.088 1.147.705 1.147 1.411v.441c.44.177.705.618.705 1.147.088 1.059-.088 2.117-.441 3.176a1.395 1.395 0 0 1-1.675.882c-.088.089-.088.177-.176.265-.353 0-.794.265-1.147.265z"/><path fill="#1F84FF" d="M182.487 202.845c-.265 0-.529-.088-.794-.265-1.146-.882-1.675-2.558-1.058-3.881.265-.706 1.058-.971 1.764-.706.529.264.793.794.793 1.323.265-.088.441-.088.705-.176 1.147-.089 2.293.264 2.998 1.147.441.617.353 1.411-.176 1.852-.618.441-1.411.353-1.852-.176-.088-.088-.352-.177-.529-.177-.264 0-.441.177-.529.265a1.4 1.4 0 0 1-.881.706c-.265.088-.353.088-.441.088zM253.193 140.384c-.705 0-1.322-.529-1.322-1.323-.088-2.294-.176-4.588-.265-6.705-.176-5.47-.44-10.587-.44-16.145 0-.706.617-1.323 1.322-1.323.705 0 1.322.617 1.322 1.323 0 5.47.265 10.587.441 16.056.088 2.206.177 4.412.265 6.794 0 .705-.529 1.323-1.323 1.323z"/><path fill="#1F84FF" d="M252.488 117.535c-.265 0-.529-.089-.793-.265-.618-.441-.706-1.323-.265-1.853 2.116-2.735 2.998-4.058 5.995-6.881a1.312 1.312 0 0 1 1.94.088c.529.53.529 1.412-.088 1.941-2.822 2.647-3.615 3.794-5.731 6.529a1.63 1.63 0 0 1-1.058.441z"/><path fill="#1F84FF" d="M252.488 117.535c-.705 0-1.322-.53-1.322-1.324 0-.706.529-1.323 1.322-1.411 18.69-.618 37.645-1.235 56.336-1.765a8243.454 8243.454 0 0 1 65.945-1.588c.706 0 1.323.618 1.411 1.324 0 .705-.617 1.323-1.323 1.411-21.864.441-43.993.971-65.857 1.588-18.867.529-37.733 1.147-56.512 1.765z"/><path fill="#1F84FF" d="M376.973 189.524c-.705 0-1.322-.618-1.322-1.324l-.617-75.871c0-.706.617-1.323 1.322-1.323.705 0 1.323.617 1.323 1.323l.617 75.871c0 .706-.617 1.324-1.323 1.324z"/><path fill="#1F84FF" d="M296.305 192.082c-.706 0-1.323-.617-1.323-1.323s.617-1.323 1.323-1.323h80.404c.705 0 1.322.617 1.322 1.323s-.617 1.323-1.322 1.323h-80.404zM376.18 114.182c-.176 0-.265 0-.441-.088a1.399 1.399 0 0 1-.882-1.676c1.058-3.176 3.527-5.823 6.524-7.235.706-.353 1.499 0 1.764.706.352.706 0 1.5-.706 1.765-2.38 1.058-4.231 3.176-5.113 5.646 0 .529-.529.882-1.146.882z"/><path fill="#1F84FF" d="M376.709 192.082h-.176c-.706-.088-1.235-.794-1.146-1.5a14.538 14.538 0 0 1 5.377-9.351c.618-.441 1.411-.353 1.852.264.441.618.353 1.412-.265 1.853-2.38 1.853-3.967 4.588-4.32 7.587-.088.706-.705 1.147-1.322 1.147z"/><path fill="#1F84FF" d="M376.973 189.523c-.176 0-.352 0-.529-.088-.705-.264-1.057-1.058-.705-1.764 1.058-2.559 2.733-4.852 4.937-6.529.617-.441 1.411-.353 1.852.177.44.617.352 1.411-.177 1.852-1.763 1.412-3.173 3.353-4.055 5.47-.353.618-.794.882-1.323.882zM258.307 110.918c-.705 0-1.323-.618-1.323-1.324 0-.705.529-1.323 1.323-1.411l123.692-3.176c.705 0 1.322.529 1.41 1.323 0 .706-.529 1.324-1.322 1.412l-123.78 3.176z"/><path fill="#1F84FF" d="M381.558 183.613c-.794 0-1.323-.618-1.323-1.323l.529-75.871c0-.706.617-1.324 1.323-1.324.705 0 1.322.618 1.322 1.324l-.529 75.871c0 .705-.617 1.323-1.322 1.323zM317.816 221.372c-5.466 0-10.05-1.059-15.075-2.647a62.639 62.639 0 0 1-7.582-3.176 1.408 1.408 0 0 1-.706-1.235l.177-9.616c0-.441.264-.794.617-1.059a31.762 31.762 0 0 1 7.582-3.705c2.821-.882 5.73-1.323 8.728-1.235.705 0 1.322.617 1.322 1.323s-.617 1.323-1.322 1.323c-2.733 0-5.378.353-7.935 1.147a29.41 29.41 0 0 0-6.347 2.912l-.177 8.116a44.915 44.915 0 0 0 6.436 2.647c9.169 2.999 17.104 3.793 32.444-.441 2.116-.618 4.496-1.412 6.348-2.735 1.763-1.324 2.733-3 2.644-4.5-.176-2.029-2.204-3.44-3.262-4.146-4.672-3.264-10.138-3.352-13.048-3.176-.705.088-1.41-.529-1.41-1.235-.088-.706.529-1.412 1.234-1.412 3.262-.264 9.433-.176 14.811 3.617 1.235.883 4.144 2.912 4.32 6.176.177 2.47-1.146 5.029-3.702 6.881-2.205 1.588-4.849 2.471-7.23 3.176-7.758 2.118-13.753 3-18.867 3z"/><path fill="#1F84FF" d="M313.585 209.021c-.617 0-1.235-.441-1.323-1.147-.881-5.382-.881-10.851-.176-16.233.088-.353.176-1.059.617-1.588.441-.617 1.322-.706 1.851-.265.529.441.706 1.235.265 1.853 0 .088-.088.265-.088.353-.706 5.117-.617 10.322.176 15.439.088.706-.353 1.411-1.146 1.5 0 .088-.088.088-.176.088zM326.985 209.285c-.793 0-1.41-.617-1.322-1.411.264-5.646.529-11.381.881-17.027.088-.706.706-1.323 1.411-1.235.705.088 1.322.706 1.234 1.411-.352 5.647-.617 11.293-.881 16.939 0 .706-.618 1.323-1.323 1.323z"/><path fill="#1F84FF" d="M318.257 210.432c-1.499 0-2.997-.088-4.496-.264-.705-.089-1.234-.794-1.146-1.5.088-.706.793-1.235 1.499-1.147 4.055.529 8.111.265 12.078-.706a1.316 1.316 0 0 1 .617 2.559c-2.909.794-5.731 1.058-8.552 1.058zM311.292 160.058c-.705 0-1.322-.618-1.322-1.324-.176-6.616-.882-13.145-2.028-19.673-.176-.706.353-1.412 1.058-1.588.705-.177 1.411.353 1.587 1.058a127.57 127.57 0 0 1 2.116 20.115c-.088.794-.705 1.412-1.411 1.412zM317.993 158.734c-.706 0-1.323-.617-1.323-1.323 0-3.176-.264-6.44-.793-9.616-.088-.706.441-1.412 1.146-1.5.705-.088 1.411.441 1.499 1.147.529 3.264.793 6.705.793 9.969 0 .706-.529 1.323-1.322 1.323zM327.162 158.558h-.353c-.353-.089-.617-.353-.793-.618-1.94-3.441-3.174-7.322-3.527-11.204-.088-.706.441-1.412 1.234-1.5.706-.088 1.411.441 1.499 1.235.265 2.647.97 5.294 2.028 7.764v-.088l.088-.353c.441-2.294 1.499-4.411 2.998-6.264.44-.529 1.322-.618 1.851-.177.529.442.617 1.324.176 1.853-1.234 1.412-2.027 3.176-2.38 4.941l-.088.352c-.177 1.236-.529 2.824-1.94 3.794-.264.176-.529.265-.793.265zM340.386 158.646c-1.675 0-3.35-.883-4.32-2.294-.97-1.323-1.322-3.176-1.058-4.941 0-.264 0-.529.176-.794 0-.088 0-.176.089-.176.44-1.588 1.322-3.176 2.733-4.852.264-.353 1.234-1.412 2.556-1.235.617.088 1.499.441 2.028 1.764.97 2.117.617 4.676-.793 6.176a4.648 4.648 0 0 1-3.527 1.323c-.176 0-.353 0-.441-.088a3.1 3.1 0 0 0 .529 1.235c.617.97 1.94 1.411 2.821 1.059a1.37 1.37 0 0 1 1.764.794 1.37 1.37 0 0 1-.794 1.764 6.12 6.12 0 0 1-1.763.265zm-2.469-7.852a.963.963 0 0 0 .441.088c.529 0 1.058-.176 1.411-.529.705-.706.881-2.118.353-3.176l-.089.088c-1.146 1.323-1.763 2.382-2.116 3.529zM317.728 144.089c-.353 0-.793-.176-.97-.441-.441-.353-.705-.97-.441-1.588.265-.617.794-.97 1.499-.882.706.088 1.234.618 1.411 1.235.088.618-.177 1.235-.794 1.5-.352.088-.529.176-.705.176zM175.169 140.383c-.088 0-.088 0 0 0-.793 0-1.41-.617-1.322-1.411.088-2.294.176-4.588.264-6.793.177-5.47.441-10.587.441-16.057 0-.705.617-1.411 1.323-1.323.705 0 1.322.618 1.322 1.323 0 5.47-.265 10.675-.441 16.145-.088 2.206-.176 4.411-.264 6.793-.089.794-.617 1.323-1.323 1.323z"/><path fill="#1F84FF" d="M175.787 117.534c-.441 0-.794-.176-1.058-.529-2.028-2.735-2.91-3.882-5.731-6.528-.529-.53-.529-1.324-.088-1.941.529-.53 1.322-.53 1.94-.088 2.909 2.823 3.879 4.058 5.995 6.881.44.617.352 1.411-.265 1.853-.176.264-.441.352-.793.352z"/><path fill="#1F84FF" d="M175.787 117.534c-18.779-.617-37.646-1.235-56.336-1.764a8175.41 8175.41 0 0 0-65.858-1.588c-.705 0-1.322-.618-1.322-1.412 0-.706.617-1.323 1.41-1.323 21.865.441 44.082.97 65.946 1.588 18.691.529 37.557 1.147 56.336 1.764.705 0 1.322.618 1.322 1.412-.176.794-.705 1.323-1.498 1.323z"/><path fill="#1F84FF" d="M51.301 189.523c-.793 0-1.322-.617-1.322-1.323l.617-75.871c0-.706.617-1.324 1.322-1.324.706 0 1.323.618 1.323 1.324l-.617 75.871c.088.706-.53 1.323-1.323 1.323z"/><path fill="#1F84FF" d="M132.058 192.082H51.654c-.706 0-1.323-.618-1.323-1.324 0-.705.617-1.323 1.323-1.323h80.404c.705 0 1.322.618 1.322 1.323 0 .794-.617 1.324-1.322 1.324zM52.095 114.181a1.326 1.326 0 0 1-1.234-.882c-.794-2.47-2.733-4.587-5.114-5.646-.705-.353-.97-1.147-.705-1.765.352-.705 1.146-.97 1.763-.705 2.998 1.411 5.466 4.058 6.524 7.234.264.706-.176 1.5-.882 1.676-.088.088-.264.088-.352.088z"/><path fill="#1F84FF" d="M51.654 192.082c-.706 0-1.234-.53-1.323-1.147-.352-3-1.94-5.735-4.32-7.587-.617-.441-.705-1.324-.264-1.853.44-.618 1.322-.706 1.851-.265 2.91 2.294 4.85 5.735 5.378 9.352.088.706-.44 1.411-1.146 1.5h-.176z"/><path fill="#1F84FF" d="M51.301 189.523c-.529 0-1.058-.353-1.234-.794-.882-2.117-2.292-4.058-4.056-5.47-.617-.441-.705-1.323-.176-1.852.44-.618 1.323-.706 1.852-.177 2.115 1.765 3.879 3.97 4.937 6.529.264.706-.089 1.5-.706 1.764h-.617zM169.968 110.918l-123.78-3.176c-.706 0-1.323-.618-1.323-1.412 0-.706.617-1.323 1.41-1.323l123.693 3.176c.705 0 1.322.617 1.322 1.411 0 .706-.617 1.324-1.322 1.324z"/><path fill="#1F84FF" d="M46.805 183.612c-.706 0-1.323-.617-1.323-1.323l-.529-75.871c0-.706.617-1.323 1.323-1.323.705 0 1.322.617 1.322 1.323l.53 75.871c0 .706-.618 1.323-1.323 1.323zM110.546 221.371c-5.201 0-11.196-.882-18.955-3.088-2.292-.617-5.025-1.499-7.229-3.176-2.468-1.852-3.879-4.411-3.703-6.881.265-3.264 3.174-5.293 4.32-6.175 5.378-3.794 11.55-3.882 14.812-3.618.705.089 1.322.706 1.234 1.412-.088.706-.705 1.323-1.41 1.235-2.822-.265-8.376-.176-13.049 3.176-.97.706-3.085 2.206-3.262 4.147-.088 1.499.882 3.264 2.645 4.499 1.852 1.323 4.232 2.117 6.348 2.735 15.428 4.323 23.275 3.44 32.444.441a44.856 44.856 0 0 0 6.435-2.647l-.176-8.116c-1.939-1.235-4.055-2.294-6.348-2.912-2.556-.794-5.201-1.146-7.934-1.146-.794 0-1.323-.618-1.323-1.324 0-.706.617-1.323 1.323-1.323 2.997 0 5.907.353 8.728 1.235a24.258 24.258 0 0 1 7.582 3.705c.352.265.617.618.617 1.059l.176 9.616c0 .53-.264.971-.705 1.235-2.469 1.235-5.025 2.382-7.582 3.176-4.937 1.765-9.522 2.735-14.988 2.735z"/><path fill="#1F84FF" d="M114.69 209.02h-.176c-.706-.088-1.235-.794-1.146-1.499.793-5.117.881-10.322.176-15.439 0-.088 0-.265-.088-.353-.441-.618-.353-1.412.264-1.853.617-.441 1.411-.353 1.94.265.441.529.529 1.235.617 1.588.705 5.381.705 10.851-.176 16.233a1.43 1.43 0 0 1-1.411 1.058zM101.289 209.285c-.705 0-1.322-.529-1.322-1.323-.264-5.647-.529-11.293-.882-16.939-.088-.706.53-1.412 1.235-1.412.705-.088 1.41.53 1.41 1.236.353 5.646.617 11.38.882 17.026.088.706-.529 1.324-1.323 1.412.089 0 0 0 0 0z"/><path fill="#1F84FF" d="M110.017 210.432c-2.821 0-5.73-.353-8.551-.97a1.316 1.316 0 0 1-.97-1.588 1.315 1.315 0 0 1 1.587-.971c3.967.971 8.023 1.147 12.078.706.705-.088 1.411.441 1.499 1.147.088.706-.441 1.411-1.146 1.5-1.499.088-2.998.176-4.497.176zM106.403 160.41c-.706 0-1.323-.618-1.323-1.324-.176-6.881-.881-13.85-2.204-20.643-.176-.706.353-1.412 1.058-1.588.705-.177 1.411.352 1.587 1.058 1.323 6.97 2.028 14.027 2.204 21.085.088.794-.529 1.412-1.322 1.412zM113.456 158.999c-.706 0-1.323-.618-1.323-1.324 0-3.352-.264-6.793-.793-10.145-.088-.706.44-1.412 1.146-1.5.705-.088 1.41.441 1.499 1.147a69.28 69.28 0 0 1 .793 10.498c.088.706-.529 1.324-1.322 1.324.088 0 .088 0 0 0zM123.153 158.822h-.352c-.353-.088-.617-.353-.794-.618-2.027-3.617-3.262-7.675-3.702-11.733-.089-.706.44-1.412 1.234-1.5.705-.088 1.41.441 1.499 1.235.264 2.911 1.057 5.735 2.204 8.381 0-.088 0-.176.088-.264l.088-.353c.441-2.382 1.499-4.676 3.086-6.529.44-.529 1.322-.617 1.851-.176.529.441.617 1.323.176 1.852-1.322 1.5-2.116 3.353-2.556 5.294l-.089.353c-.264 1.235-.529 2.999-2.027 3.881-.265.089-.529.177-.706.177zM113.191 143.648c-.352 0-.793-.177-1.058-.441-.441-.353-.705-.971-.441-1.588.265-.618.794-.971 1.499-.882.705.088 1.234.617 1.411 1.235.088.617-.177 1.235-.794 1.588-.264 0-.44.088-.617.088zM88.153 160.587a5.546 5.546 0 0 1-1.675-.265c-2.997-.971-4.937-4.323-4.32-7.411.706-3.088 3.791-5.381 6.965-5.028.617.088 1.146.617 1.146 1.235.088 0 .088 0 .176.088 1.852.706 3.263 2.735 3.263 4.852 0 1.765-.794 3.617-2.205 5.117-.528.529-1.058.97-1.675 1.147-.44.088-1.058.265-1.675.265zm-3.174-5.382c.353 1.147 1.235 2.206 2.38 2.558.618.177 1.147.177 1.5 0 .264-.088.529-.264.793-.617.97-.882 1.41-2.029 1.41-3.088 0-1.059-.617-2.029-1.498-2.382-.617-.265-1.41-.088-1.94.353-.529.441-.793 1.147-.705 1.853.088.705-.353 1.411-1.146 1.499-.265 0-.617-.088-.794-.176z"/><path fill="#1F84FF" d="M88.153 156.528c-.264 0-.529-.088-.705-.176-.353-.177-.53-.53-.617-.971-.441.088-.882 0-1.147-.264-.352-.265-.528-.794-.528-1.236.088-.705.352-1.411.617-2.117-.177-.529-.088-1.059.352-1.411l1.058-.971a1.46 1.46 0 0 1 1.852 0c.176.088.264.265.352.441h.088c.706.088 1.147.706 1.147 1.412v.176c.352.265.529.618.617 1.059.088.882-.088 1.853-.353 2.735-.176.617-.882.97-1.499.882l-.088.088a2.2 2.2 0 0 1-1.146.353z"/><path fill="#1F84FF" d="M86.478 157.851c-.264 0-.529-.088-.793-.264-1.058-.794-1.5-2.294-.97-3.529.264-.706 1.058-.971 1.763-.706.44.177.705.529.794.971.088 0 .264 0 .352-.089 1.058-.088 2.028.265 2.645 1.059.44.618.353 1.412-.176 1.853-.617.441-1.41.353-1.852-.177 0 0-.088-.088-.264-.088-.176 0-.265.088-.265.088a1.4 1.4 0 0 1-.881.706c-.088.176-.177.176-.353.176z"/></svg>